<?xml version="1.0" standalone="no"?>
<!DOCTYPE svg PUBLIC "-//W3C//DTD SVG 20010904//EN"
 "http://www.w3.org/TR/2001/REC-SVG-20010904/DTD/svg10.dtd">
<svg version="1.0" xmlns="http://www.w3.org/2000/svg"
 width="63.000000pt" height="134.000000pt" viewBox="0 0 63.000000 134.000000"
 preserveAspectRatio="xMidYMid meet">

<g transform="translate(0.000000,134.000000) scale(0.100000,-0.100000)"
fill="#000000" stroke="none">
<path d="M293 1149 c-15 -5 -24 -20 -29 -43 -4 -25 -12 -36 -23 -36 -37 0
-111 -33 -151 -67 -82 -70 -101 -161 -53 -253 32 -60 99 -105 174 -118 l44 -8
3 -128 3 -128 -23 7 c-74 23 -128 75 -128 123 0 25 -19 42 -50 42 -54 0 -66
-54 -27 -130 28 -57 92 -105 168 -128 47 -14 59 -22 64 -42 9 -35 24 -50 50
-50 26 0 41 15 50 52 5 20 15 28 43 33 90 17 178 86 202 160 41 124 -40 243
-187 276 l-53 12 0 124 c0 136 -1 135 65 104 51 -23 70 -46 84 -98 12 -44 35
-60 71 -48 11 3 23 18 26 32 20 78 -68 188 -178 221 -55 17 -64 24 -72 50 -10
35 -42 53 -73 41z m-33 -299 c0 -114 -1 -120 -20 -120 -31 0 -83 24 -105 50
-13 15 -20 36 -20 65 0 51 22 79 80 106 66 30 65 32 65 -101z m202 -261 c29
-15 40 -28 50 -60 10 -37 10 -46 -8 -77 -18 -33 -59 -61 -111 -77 -23 -6 -23
-6 -23 120 l0 125 28 -6 c15 -4 44 -15 64 -25z"/>
</g>
</svg>
