<svg xmlns="http://www.w3.org/2000/svg" width="101.333" height="101.333" viewBox="0 0 76 76" preserveAspectRatio="xMidYMid meet" xmlns:v="https://vecta.io/nano"><path d="M26.2 10.3c-2.5 2.6-2.8 5.7-.9 7.5.8.9 1.4 6.1 1.7 15.5l.5 14.2 10.9.5 10.9.5 1 3c.6 1.6 1.3 3.2 1.6 3.5.7.6 3.1 6.7 3.8 9.7.5 2.3 1.3 2.7 4.3 2.4 2.2-.3 8-3.1 8-3.9-.1-1.9-2.8-3.7-5.5-3.7-2.4 0-3.1-.6-4-3-.5-1.7-1.2-3.2-1.5-3.5s-1.4-2.6-2.4-5.3L52.8 43h-9.3c-8 0-9.3-.2-9.7-1.8-1-3.5.2-4.2 7.3-4.2 6.7 0 6.9-.1 6.9-2.5s-.2-2.5-7.4-2.5h-7.3l-.7-4.7c-.5-4.2-.3-5 1.9-7.1 1.7-1.5 2.5-3.3 2.5-5.6 0-6.2-6.6-8.8-10.8-4.3zM19 39.7c-1.8 1.5-4.1 4.7-5.1 7.1-2 4.7-2.5 11.7-.9 12.7.6.3 1 1.5 1 2.6 0 2.1 6.9 9.9 8.8 9.9.6 0 1.2.5 1.4 1.1s3.3 1.1 7.5 1.1c7.6.1 11-1.5 16-7.2 2.6-2.9 2.8-3.9 1.1-7.5-1.3-2.9-2.8-3.3-2.8-.7 0 2.5-4.9 7.8-8.4 9.1-7 2.7-14.5 0-18.2-6.7-1.3-2.3-2.4-5.1-2.4-6.2 0-3.1 2.2-7.5 5.8-11.5 1.4-1.6 1.6-6.5.3-6.5-.5 0-2.4 1.2-4.1 2.7z"/></svg>