<svg xmlns="http://www.w3.org/2000/svg" width="97.333" height="60" viewBox="0 0 73 45" preserveAspectRatio="xMidYMid meet" xmlns:v="https://vecta.io/nano"><path d="M6 23v17h30.5H67V23 6H36.5 6v17zm56.8-.3l.3 13.3H36.5 10V23.2c0-7.1.3-13.2.7-13.5.4-.4 12.2-.6 26.2-.5l25.6.3.3 13.2zm-50.1-11c-.4.3-.7 5.5-.7 11.5V34h11.1 11.1l-3.1-2.6c-1.8-1.5-3.3-3.9-3.7-5.9-.7-4.1 1.1-10.2 3.7-11.8 1-.6 1.9-1.5 1.9-1.9 0-1-19.4-1.1-20.3-.1zm8.8 10.8c0 2.3-.4 3-2 3-2.1 0-3.1-2.5-2.1-5.1 1.1-2.8 4.1-1.2 4.1 2.1zM40 11.7c0 .5.9 1.4 1.9 2 2.6 1.6 4.4 7.7 3.7 11.8-.4 2-1.9 4.4-3.7 5.9L38.8 34H50h11.1l-.3-11.3-.3-11.2-10.2-.3c-5.7-.1-10.3.1-10.3.5zm15.5 10.8c0 2.3-.4 3-2 3-2.1 0-3.1-2.5-2.1-5.1 1.1-2.8 4.1-1.2 4.1 2.1zm-21.2-7.2c-3.2 3.2-2.9 6.3.7 8.2 1.7.9 3 2.3 3 3.1 0 1.2-.7 1.5-3 1.2-3.7-.6-4 1.2-.4 2.9 2.1 1 2.9.9 4.5-.5 3-2.6 2.5-6.8-1.2-8.7-3.6-1.9-3.3-4.1.5-3.7 3.1.3 3.3-.7.6-3.1-2.4-2-2-2.1-4.7.6z"/></svg>