<svg xmlns="http://www.w3.org/2000/svg" viewBox="0 0 100 100">
  <circle cx="50" cy="50" r="19" fill="#000000"/>
  <g fill="#000000">
    <rect x="46.5" y="6" width="7" height="15" rx="3.5" transform="rotate(0 50 50)"/>
    <rect x="46.5" y="6" width="7" height="15" rx="3.5" transform="rotate(45 50 50)"/>
    <rect x="46.5" y="6" width="7" height="15" rx="3.5" transform="rotate(90 50 50)"/>
    <rect x="46.5" y="6" width="7" height="15" rx="3.5" transform="rotate(135 50 50)"/>
    <rect x="46.5" y="6" width="7" height="15" rx="3.5" transform="rotate(180 50 50)"/>
    <rect x="46.5" y="6" width="7" height="15" rx="3.5" transform="rotate(225 50 50)"/>
    <rect x="46.5" y="6" width="7" height="15" rx="3.5" transform="rotate(270 50 50)"/>
    <rect x="46.5" y="6" width="7" height="15" rx="3.5" transform="rotate(315 50 50)"/>
  </g>
</svg>
